HIERARCHY
ROOT hip
{
  OFFSET 0 0 0
  CHANNELS 6 Xposition Yposition Zposition Zrotation Yrotation Xrotation
  JOINT abdomen
  {
    OFFSET 0 20.6881 -0.73152
    CHANNELS 3 Zrotation Xrotation Yrotation
    JOINT chest
    {
      OFFSET 0 11.7043 -0.48768
      CHANNELS 3 Zrotation Xrotation Yrotation
      JOINT neck
      {
        OFFSET 0 22.1894 -2.19456
        CHANNELS 3 Zrotation Xrotation Yrotation
        JOINT head
        {
          OFFSET -0.24384 7.07133 1.2192
          CHANNELS 3 Zrotation Xrotation Yrotation
          JOINT leftEye
          {
            OFFSET 4.14528 8.04674 8.04672
            CHANNELS 3 Zrotation Xrotation Yrotation
            End Site
            {
              OFFSET 1 0 0
            }
          }
          JOINT rightEye
          {
            OFFSET -3.6576 8.04674 8.04672
            CHANNELS 3 Zrotation Xrotation Yrotation
            End Site
            {
              OFFSET 1 0 0
            }
          }
        }
      }
      JOINT rCollar
      {
        OFFSET -2.68224 19.2634 -4.8768
        CHANNELS 3 Zrotation Xrotation Yrotation
        JOINT rShldr
        {
          OFFSET -8.77824 -1.95073 1.46304
          CHANNELS 3 Zrotation Xrotation Yrotation
          JOINT rForeArm
          {
            OFFSET -28.1742 -1.7115 0.48768
            CHANNELS 3 Zrotation Xrotation Yrotation
            JOINT rHand
            {
              OFFSET -22.5879 0.773209 7.07136
              CHANNELS 3 Zrotation Xrotation Yrotation
              JOINT rThumb1
              {
                OFFSET -1.2192 -0.487915 3.41376
                CHANNELS 3 Zrotation Xrotation Yrotation
                JOINT rThumb2
                {
                  OFFSET -3.37035 -0.52449 3.41376
                  CHANNELS 3 Zrotation Xrotation Yrotation
                  End Site
                  {
                    OFFSET -1.78271 -1.18214 1.43049
                  }
                }
              }
              JOINT rIndex1
              {
                OFFSET -7.75947 0.938293 5.60832
                CHANNELS 3 Zrotation Xrotation Yrotation
                JOINT rIndex2
                {
                  OFFSET -2.54057 -0.884171 1.56538
                  CHANNELS 3 Zrotation Xrotation Yrotation
                  End Site
                  {
                    OFFSET -1.62519 -0.234802 1.16502
                  }
                }
              }
              JOINT rMid1
              {
                OFFSET -8.24714 1.18213 3.41376
                CHANNELS 3 Zrotation Xrotation Yrotation
                JOINT rMid2
                {
                  OFFSET -3.10165 -0.590103 1.0647
                  CHANNELS 3 Zrotation Xrotation Yrotation
                  End Site
                  {
                    OFFSET -2.48547 -0.328903 0.83742
                  }
                }
              }
              JOINT rRing1
              {
                OFFSET -8.82822 0.546677 1.51678
                CHANNELS 3 Zrotation Xrotation Yrotation
                JOINT rRing2
                {
                  OFFSET -2.60934 -0.819778 -0.0198488
                  CHANNELS 3 Zrotation Xrotation Yrotation
                  End Site
                  {
                    OFFSET -2.33842 -0.294052 0.168128
                  }
                }
              }
              JOINT rPinky1
              {
                OFFSET -8.27202 -0.0477905 -0.4584
                CHANNELS 3 Zrotation Xrotation Yrotation
                JOINT rPinky2
                {
                  OFFSET -1.82734 -0.647385 -0.700984
                  CHANNELS 3 Zrotation Xrotation Yrotation
                  End Site
                  {
                    OFFSET -1.69225 -0.51767 -0.607171
                  }
                }
              }
            }
          }
        }
      }
      JOINT lCollar
      {
        OFFSET 2.68224 19.2634 -4.8768
        CHANNELS 3 Zrotation Xrotation Yrotation
        JOINT lShldr
        {
          OFFSET 8.77824 -1.95073 1.46304
          CHANNELS 3 Zrotation Xrotation Yrotation
          JOINT lForeArm
          {
            OFFSET 28.1742 -1.7115 0.48768
            CHANNELS 3 Zrotation Xrotation Yrotation
            JOINT lHand
            {
              OFFSET 22.5879 0.773209 7.07136
              CHANNELS 3 Zrotation Xrotation Yrotation
              JOINT lThumb1
              {
                OFFSET 1.2192 -0.487915 3.41376
                CHANNELS 3 Zrotation Xrotation Yrotation
                JOINT lThumb2
                {
                  OFFSET 3.37035 -0.52449 3.41376
                  CHANNELS 3 Zrotation Xrotation Yrotation
                  End Site
                  {
                    OFFSET 1.78271 -1.18214 1.43049
                  }
                }
              }
              JOINT lIndex1
              {
                OFFSET 7.75947 0.938293 5.60832
                CHANNELS 3 Zrotation Xrotation Yrotation
                JOINT lIndex2
                {
                  OFFSET 2.54057 -0.884171 1.56538
                  CHANNELS 3 Zrotation Xrotation Yrotation
                  End Site
                  {
                    OFFSET 1.62519 -0.234802 1.16502
                  }
                }
              }
              JOINT lMid1
              {
                OFFSET 8.24714 1.18213 3.41376
                CHANNELS 3 Zrotation Xrotation Yrotation
                JOINT lMid2
                {
                  OFFSET 3.10165 -0.590103 1.0647
                  CHANNELS 3 Zrotation Xrotation Yrotation
                  End Site
                  {
                    OFFSET 2.48547 -0.328903 0.83742
                  }
                }
              }
              JOINT lRing1
              {
                OFFSET 8.82822 0.546677 1.51678
                CHANNELS 3 Zrotation Xrotation Yrotation
                JOINT lRing2
                {
                  OFFSET 2.60934 -0.819778 -0.0198488
                  CHANNELS 3 Zrotation Xrotation Yrotation
                  End Site
                  {
                    OFFSET 2.33842 -0.294052 0.168128
                  }
                }
              }
              JOINT lPinky1
              {
                OFFSET 8.27202 -0.0477905 -0.4584
                CHANNELS 3 Zrotation Xrotation Yrotation
                JOINT lPinky2
                {
                  OFFSET 1.82734 -0.647385 -0.700984
                  CHANNELS 3 Zrotation Xrotation Yrotation
                  End Site
                  {
                    OFFSET 1.69225 -0.51767 -0.607171
                  }
                }
              }
            }
          }
        }
      }
    }
  }
  JOINT rButtock
  {
    OFFSET -8.77824 4.35084 1.2192
    CHANNELS 3 Zrotation Xrotation Yrotation
    JOINT rThigh
    {
      OFFSET 0 -1.70687 -2.19456
      CHANNELS 3 Zrotation Xrotation Yrotation
      JOINT rShin
      {
        OFFSET 0 -36.8199 0.73152
        CHANNELS 3 Zrotation Xrotation Yrotation
        JOINT rFoot
        {
          OFFSET 0.73152 -45.1104 -5.12064
          CHANNELS 3 Zrotation Xrotation Yrotation
          End Site
          {
            OFFSET -1.1221 -3.69964 12.103
          }
        }
      }
    }
  }
  JOINT lButtock
  {
    OFFSET 8.77824 4.35084 1.2192
    CHANNELS 3 Zrotation Xrotation Yrotation
    JOINT lThigh
    {
      OFFSET 0 -1.70687 -2.19456
      CHANNELS 3 Zrotation Xrotation Yrotation
      JOINT lShin
      {
        OFFSET 0 -36.8199 0.73152
        CHANNELS 3 Zrotation Xrotation Yrotation
        JOINT lFoot
        {
          OFFSET -0.73152 -45.1104 -5.12064
          CHANNELS 3 Zrotation Xrotation Yrotation
          End Site
          {
            OFFSET 1.1221 -3.69964 12.103
          }
        }
      }
    }
  }
}
MOTION
Frames:	9
Frame Time:	0.00833333
-0.0616311 80.1611 40.5901 -1083.35 -692.371 7.1137 -1.75989 -3.25526 9.79812 -1.18217 -12.9951 2.92099 -11.1986 20.0585 -10.4057 50.215 -25.1181 -10.1187 -0.0 0.0 0.0 -0.0 0.0 0.0 3.47895e-14 -2.86635e-13 -3.44177e-13 71.6091 -69.2769 113.413 -28.3416 -33.4112 72.7594 -0.046681 -6.60805 -0.931786 1.41692e-09 2.20303e-09 -4.42472e-09 2.46752e-09 3.77116e-09 -7.64726e-09 1.41693e-09 2.20302e-09 -4.42473e-09 7.73091 5.47488 0.417314 1.41693e-09 2.20301e-09 -4.42472e-09 2.90554 0.965183 0.102902 1.41693e-09 2.20302e-09 -4.42472e-09 10.2786 0.731801 0.0259123 1.41691e-09 2.20302e-09 -4.42472e-09 2.22167 -0.733487 -0.20892 3.47347e-14 -2.86635e-13 -3.44363e-13 -50.8088 70.4693 -31.5279 27.7282 -41.6986 -86.9854 0.43096 18.3886 -2.67694 -2.12842e-09 8.99286e-09 -1.30996e-09 -3.68183e-09 1.55158e-08 -2.23583e-09 -2.12842e-09 8.99287e-09 -1.30995e-09 -7.73091 5.47488 -0.417314 -2.12841e-09 8.99286e-09 -1.30995e-09 -2.90554 0.965183 -0.102902 -2.12842e-09 8.99286e-09 -1.30995e-09 -10.2786 0.731801 -0.0259123 -2.12842e-09 8.99286e-09 -1.30996e-09 -2.22167 -0.733487 0.20892 -2.03217e-16 0.0 -3.88251e-19 9.00844 -23.1069 9.89792 -0.106152 34.3455 0.63177 -1.59377 -8.11903 -7.17945 2.03217e-16 0.0 3.88251e-19 0.0872657 -43.3194 -20.389 1.75786 68.0165 -2.25106 1.26516 -8.41904 2.84275
1.59765 80.924 40.5066 -1083.02 -700.006 7.4248 -2.28245 -3.50712 10.0314 -0.658754 -14.2368 3.03571 -10.2757 21.3062 -11.2129 48.0291 -24.6656 -12.8042 -0.0 0.0 0.0 -0.0 0.0 0.0 1.65044e-14 -3.73313e-13 -2.85192e-13 77.8831 -69.5273 117.477 -28.3396 -33.3819 72.7096 -0.0237822 -4.75343 -0.668939 1.30188e-09 7.03734e-09 -5.51372e-09 2.27111e-09 1.21301e-08 -9.53483e-09 1.30189e-09 7.03732e-09 -5.51372e-09 7.73091 5.47488 0.417314 1.30188e-09 7.03732e-09 -5.51371e-09 2.90554 0.965183 0.102902 1.30189e-09 7.03732e-09 -5.51372e-09 10.2786 0.731801 0.0259123 1.30187e-09 7.03733e-09 -5.51371e-09 2.22167 -0.733487 -0.20892 1.64441e-14 -3.73313e-13 -2.8542e-13 -51.6946 72.961 -30.7288 27.6202 -42.1034 -87.7538 0.37387 17.1557 -2.4861 -3.37285e-09 9.84855e-09 -1.09828e-09 -5.82701e-09 1.69586e-08 -1.85544e-09 -3.37285e-09 9.84856e-09 -1.09828e-09 -7.73091 5.47488 -0.417314 -3.37285e-09 9.84855e-09 -1.09828e-09 -2.90554 0.965183 -0.102902 -3.37286e-09 9.84855e-09 -1.09828e-09 -10.2786 0.731801 -0.0259123 -3.37285e-09 9.84855e-09 -1.09828e-09 -2.22167 -0.733487 0.20892 -2.03217e-16 0.0 -3.88251e-19 6.80259 -22.3274 10.7164 -0.0601547 32.0777 0.589474 -0.626638 -9.98769 -1.6839 2.03217e-16 0.0 3.88251e-19 -1.33604 -41.0779 -25.4545 1.38335 64.1751 -1.82139 -0.331963 -11.7938 -2.81088
3.34368 81.7519 40.4342 -1082.48 -707.76 7.7164 -2.56697 -3.52314 10.1182 -0.111413 -15.3972 3.11966 -9.30159 22.146 -11.9713 45.4135 -23.8164 -15.3882 -0.0 0.0 0.0 -0.0 0.0 0.0 -7.15186e-15 -3.97569e-13 -2.57476e-13 81.488 -69.795 118.933 -28.3504 -33.4847 72.8585 -0.0114829 -3.05802 -0.430189 1.22161e-09 1.01745e-08 -6.02836e-09 2.13186e-09 1.75568e-08 -1.04278e-08 1.22162e-09 1.01745e-08 -6.02837e-09 7.73091 5.47488 0.417314 1.22162e-09 1.01745e-08 -6.02835e-09 2.90554 0.965183 0.102902 1.22162e-09 1.01745e-08 -6.02836e-09 10.2786 0.731801 0.0259123 1.2216e-09 1.01745e-08 -6.02836e-09 2.22167 -0.733487 -0.20892 -7.2108e-15 -3.97569e-13 -2.57724e-13 -53.447 75.2361 -29.2015 27.5419 -42.3597 -88.2649 0.32382 15.9805 -2.30664 -4.00619e-09 9.61966e-09 -9.75696e-10 -6.91834e-09 1.65447e-08 -1.63614e-09 -4.00619e-09 9.61967e-09 -9.75692e-10 -7.73091 5.47488 -0.417314 -4.00618e-09 9.61966e-09 -9.75696e-10 -2.90554 0.965183 -0.102902 -4.00619e-09 9.61967e-09 -9.75692e-10 -10.2786 0.731801 -0.0259123 -4.00619e-09 9.61966e-09 -9.75696e-10 -2.22167 -0.733487 0.20892 -2.03217e-16 0.0 -3.88251e-19 4.87167 -22.0122 11.1894 -0.0275686 30.2475 0.536057 0.515463 -11.3341 3.29129 2.03217e-16 0.0 3.88251e-19 -1.95412 -38.5652 -28.7081 1.12641 60.575 -1.5159 -2.1861 -13.2746 -8.15862
5.09713 82.4559 40.3857 -1082.29 -715.653 7.6301 -2.4568 -3.19171 10.0439 0.463599 -16.5085 3.17111 -8.20536 22.3401 -12.6827 42.0289 -22.3286 -17.9637 -0.0 0.0 0.0 -0.0 0.0 0.0 -4.72603e-14 -3.18557e-13 -3.01603e-13 81.6977 -70.1819 116.979 -28.378 -33.8006 73.3404 -0.00147595 -1.43877 -0.202582 1.26946e-09 1.10725e-08 -5.75935e-09 2.20885e-09 1.91153e-08 -9.96373e-09 1.26947e-09 1.10725e-08 -5.75935e-09 7.73091 5.47488 0.417314 1.26946e-09 1.10725e-08 -5.75934e-09 2.90554 0.965183 0.102902 1.26947e-09 1.10725e-08 -5.75934e-09 10.2786 0.731801 0.0259123 1.26945e-09 1.10725e-08 -5.75934e-09 2.22167 -0.733487 -0.20892 -4.73034e-14 -3.1856e-13 -3.01834e-13 -57.1878 77.3558 -25.8762 27.5119 -42.4472 -88.4494 0.27574 14.8085 -2.12916 -3.71492e-09 7.59224e-09 -1.0675e-09 -6.41528e-09 1.30495e-08 -1.79808e-09 -3.71492e-09 7.59225e-09 -1.0675e-09 -7.73091 5.47488 -0.417314 -3.71491e-09 7.59225e-09 -1.06751e-09 -2.90554 0.965183 -0.102902 -3.71493e-09 7.59225e-09 -1.0675e-09 -10.2786 0.731801 -0.0259123 -3.71492e-09 7.59225e-09 -1.06751e-09 -2.22167 -0.733487 0.20892 -2.03217e-16 0.0 -3.88251e-19 3.19638 -22.2835 11.1816 -0.00757196 28.8589 0.459356 1.93108 -12.3719 8.65833 2.03217e-16 0.0 3.88251e-19 -2.0766 -35.5845 -30.5266 0.930479 57.1547 -1.28044 -3.67958 -11.8112 -13.6729
6.87051 83.046 40.3289 -1082.13 -723.698 7.3892 -2.09374 -2.62587 9.81624 1.08914 -17.6039 3.19169 -7.03662 22.1213 -13.3341 38.0598 -20.4674 -20.4837 -0.0 0.0 0.0 -0.0 0.0 0.0 -1.00257e-13 -1.83028e-13 -3.91385e-13 78.9333 -70.5268 111.968 -28.4064 -34.2434 74.0474 0.00339939 0.203288 0.0282086 1.41631e-09 1.06555e-08 -4.98234e-09 2.45336e-09 1.84033e-08 -8.61978e-09 1.41631e-09 1.06555e-08 -4.98234e-09 7.73091 5.47488 0.417314 1.41631e-09 1.06555e-08 -4.98233e-09 2.90554 0.965183 0.102902 1.41632e-09 1.06555e-08 -4.98233e-09 10.2786 0.731801 0.0259123 1.4163e-09 1.06555e-08 -4.98233e-09 2.22167 -0.733487 -0.20892 -1.00277e-13 -1.83034e-13 -3.91581e-13 -64.4436 79.3284 -19.1378 27.507 -42.455 -88.4742 0.229936 13.5973 -1.94761 -2.76537e-09 4.3366e-09 -1.30443e-09 -4.77707e-09 7.44917e-09 -2.21891e-09 -2.76536e-09 4.33661e-09 -1.30442e-09 -7.73091 5.47488 -0.417314 -2.76537e-09 4.33661e-09 -1.30443e-09 -2.90554 0.965183 -0.102902 -2.76538e-09 4.33661e-09 -1.30443e-09 -10.2786 0.731801 -0.0259123 -2.76537e-09 4.3366e-09 -1.30444e-09 -2.22167 -0.733487 0.20892 -2.03217e-16 0.0 -3.88251e-19 1.60972 -23.0078 10.7823 0.000494317 27.6985 0.359483 3.54298 -13.03 14.3478 2.03217e-16 0.0 3.88251e-19 -1.90365 -32.1987 -31.4826 0.771687 53.7273 -1.08338 -4.3643 -8.528 -19.4375
8.61506 83.5741 40.2482 -1082.03 -732.026 7.0891 -1.71894 -1.99109 9.46368 1.73086 -18.5862 3.18109 -5.98543 21.8631 -13.898 34.2912 -18.6542 -22.7436 -0.0 0.0 0.0 -0.0 0.0 0.0 -1.43883e-13 -4.7822e-14 -4.55175e-13 74.1218 -70.6147 105.043 -28.4219 -34.679 74.7814 0.000108957 1.60661 0.225677 1.474e-09 9.45021e-09 -3.96152e-09 2.54401e-09 1.63286e-08 -6.85358e-09 1.47401e-09 9.45021e-09 -3.96153e-09 7.73091 5.47488 0.417314 1.474e-09 9.4502e-09 -3.96152e-09 2.90554 0.965183 0.102902 1.47401e-09 9.4502e-09 -3.96152e-09 10.2786 0.731801 0.0259123 1.474e-09 9.45021e-09 -3.96151e-09 2.22167 -0.733487 -0.20892 -1.43883e-13 -4.78312e-14 -4.55336e-13 -73.6939 80.8213 -10.4194 27.5293 -42.3824 -88.331 0.193517 12.5014 -1.78522 -1.66318e-09 1.03137e-09 -1.45649e-09 -2.8755e-09 1.76683e-09 -2.49499e-09 -1.66317e-09 1.03139e-09 -1.45647e-09 -7.73091 5.47488 -0.417314 -1.66317e-09 1.03138e-09 -1.45649e-09 -2.90554 0.965183 -0.102902 -1.66318e-09 1.03138e-09 -1.45649e-09 -10.2786 0.731801 -0.0259123 -1.66318e-09 1.03138e-09 -1.4565e-09 -2.22167 -0.733487 0.20892 -2.03217e-16 0.0 -3.88251e-19 0.303489 -24.0129 10.2374 -0.00429656 26.9177 0.26122 4.5681 -12.9336 18.2535 2.03217e-16 0.0 3.88251e-19 -1.40347 -29.1294 -31.0235 0.65328 50.5731 -0.929097 -4.13047 -5.24744 -24.0345
10.3309 84.0218 40.0886 -1081.9 -740.494 6.8318 -1.57703 -1.45351 9.01345 2.35475 -19.3588 3.13869 -5.22456 21.9364 -14.3528 31.4184 -17.2898 -24.5519 -0.0 0.0 0.0 -0.0 0.0 0.0 -1.55879e-13 3.02195e-14 -4.21324e-13 68.458 -70.3378 97.6037 -28.4252 -34.9874 75.3244 -0.00773129 2.50972 0.352946 1.25438e-09 7.98307e-09 -2.9611e-09 2.1594e-09 1.37989e-08 -5.12278e-09 1.25438e-09 7.98308e-09 -2.96111e-09 7.73091 5.47488 0.417314 1.25438e-09 7.98308e-09 -2.9611e-09 2.90554 0.965183 0.102902 1.25439e-09 7.98308e-09 -2.9611e-09 10.2786 0.731801 0.0259123 1.25437e-09 7.98308e-09 -2.96109e-09 2.22167 -0.733487 -0.20892 -1.55875e-13 3.02104e-14 -4.21473e-13 -80.965 81.7396 -3.58678 27.579 -42.2272 -88.0144 0.170153 11.6751 -1.66416 -9.13979e-10 -1.14479e-09 -1.2937e-09 -1.58233e-09 -1.97434e-09 -2.22274e-09 -9.13968e-10 -1.14478e-09 -1.29368e-09 -7.73091 5.47488 -0.417314 -9.13975e-10 -1.14478e-09 -1.2937e-09 -2.90554 0.965183 -0.102902 -9.13982e-10 -1.14478e-09 -1.2937e-09 -10.2786 0.731801 -0.0259123 -9.13977e-10 -1.14479e-09 -1.29371e-09 -2.22167 -0.733487 0.20892 -2.03217e-16 0.0 -3.88251e-19 -0.514751 -25.1263 9.79794 -0.0200314 26.6678 0.188116 4.1899 -11.8471 18.2731 2.03217e-16 0.0 3.88251e-19 -0.654792 -26.9657 -28.5396 0.573442 47.9724 -0.818046 -3.70994 -3.53679 -26.0509
11.9587 84.3477 39.8756 -1081.79 -748.982 6.6742 -1.82997 -1.01444 8.45358 3.04859 -19.9052 3.07784 -4.78974 22.4849 -14.7267 29.5419 -16.5821 -25.8649 -0.0 0.0 0.0 -0.0 0.0 0.0 -1.16027e-13 1.63144e-14 -2.14893e-13 61.2198 -69.6363 88.9452 -28.4256 -35.1447 75.6016 -0.0123757 2.766 0.389075 4.77474e-10 5.9413e-09 -1.86385e-09 8.17909e-10 1.02726e-08 -3.22477e-09 4.77472e-10 5.9413e-09 -1.86386e-09 7.73091 5.47488 0.417314 4.77472e-10 5.9413e-09 -1.86385e-09 2.90554 0.965183 0.102902 4.77478e-10 5.9413e-09 -1.86385e-09 10.2786 0.731801 0.0259123 4.77467e-10 5.9413e-09 -1.86384e-09 2.22167 -0.733487 -0.20892 -1.16047e-13 1.63105e-14 -2.15064e-13 -82.7682 82.2545 -2.06019 27.6551 -41.961 -87.4983 0.15575 11.0961 -1.57999 -7.39516e-10 -1.78424e-09 -5.10932e-10 -1.27927e-09 -3.07454e-09 -8.72069e-10 -7.39507e-10 -1.78423e-09 -5.10912e-10 -7.73091 5.47488 -0.417314 -7.39509e-10 -1.78423e-09 -5.10935e-10 -2.90554 0.965183 -0.102902 -7.39521e-10 -1.78423e-09 -5.10934e-10 -10.2786 0.731801 -0.0259123 -7.39514e-10 -1.78424e-09 -5.10941e-10 -2.22167 -0.733487 0.20892 -2.03217e-16 0.0 -3.88251e-19 -0.655976 -26.4857 9.44843 -0.0473819 27.0523 0.141939 2.02873 -9.05234 12.2681 2.03217e-16 0.0 3.88251e-19 0.470599 -25.5997 -22.7573 0.52089 46.0041 -0.738054 -3.66178 -4.03658 -24.3806
13.5848 84.3898 39.5891 -1081.38 -757.329 6.4975 -2.31114 -0.599028 7.77571 3.79725 -20.2739 2.99343 -4.58442 23.2957 -15.0253 28.2299 -16.2743 -26.8018 -0.0 0.0 0.0 -0.0 0.0 0.0 -4.09594e-14 -5.26808e-14 1.07294e-13 53.0275 -68.2213 79.6349 -28.427 -35.2193 75.7248 -0.0109656 2.54055 0.357314 -6.79771e-10 3.19512e-09 -5.91425e-10 -1.1771e-09 5.52693e-09 -1.02369e-09 -6.79771e-10 3.19513e-09 -5.91429e-10 7.73091 5.47488 0.417314 -6.79772e-10 3.19513e-09 -5.91425e-10 2.90554 0.965183 0.102902 -6.79766e-10 3.19513e-09 -5.91423e-10 10.2786 0.731801 0.0259123 -6.79776e-10 3.19513e-09 -5.91413e-10 2.22167 -0.733487 -0.20892 -4.10203e-14 -5.26758e-14 1.0708e-13 -80.0876 82.4672 -4.89889 27.7481 -41.587 -86.8079 0.145975 10.7034 -1.52296 -8.41147e-10 -1.5467e-09 6.87886e-10 -1.45163e-09 -2.66621e-09 1.20095e-09 -8.41142e-10 -1.54669e-09 6.87905e-10 -7.73091 5.47488 -0.417314 -8.41135e-10 -1.54669e-09 6.87884e-10 -2.90554 0.965183 -0.102902 -8.41154e-10 -1.5467e-09 6.87888e-10 -10.2786 0.731801 -0.0259123 -8.41146e-10 -1.5467e-09 6.87885e-10 -2.22167 -0.733487 0.20892 -2.03217e-16 0.0 -3.88251e-19 -0.286422 -28.123 9.08183 -0.0837321 27.9696 0.110104 -0.165269 -4.49134 2.11124 2.03217e-16 0.0 3.88251e-19 1.56579 -24.2514 -14.43 0.482871 44.5175 -0.677073 -3.56357 -5.83986 -20.0369
